<?xml version="1.0" encoding="utf-8"?>
<!-- Generator: Adobe Illustrator 15.0.0, SVG Export Plug-In . SVG Version: 6.00 Build 0)  -->
<!DOCTYPE svg PUBLIC "-//W3C//DTD SVG 1.1//EN" "http://www.w3.org/Graphics/SVG/1.1/DTD/svg11.dtd">
<svg version="1.1" id="图层_1" xmlns="http://www.w3.org/2000/svg" xmlns:xlink="http://www.w3.org/1999/xlink" x="0px" y="0px"
	 width="16px" height="14px" viewBox="0 0 16 14" enable-background="new 0 0 16 14" xml:space="preserve">
<path fill="#4E92CF" d="M12.991,12.574L8.603,9.201L8.562,9.172C8.428,9.09,8.273,9.045,8.117,9.045S7.807,9.088,7.672,9.172
	l-4.43,3.402V2.092c0-0.464,0.377-0.84,0.84-0.84h8.069c0.463,0,0.84,0.376,0.84,0.84V12.574z M12.151,0.243H4.082
	C3.062,0.245,2.234,1.072,2.233,2.092v10.824c0,0.465,0.376,0.842,0.841,0.842c0.157,0,0.312-0.045,0.445-0.129L8.117,10.1
	l4.557,3.502l0.04,0.027c0.395,0.246,0.914,0.125,1.159-0.27C13.956,13.227,14,13.074,14,12.916V2.092
	C14,1.073,13.171,0.243,12.151,0.243z"/>
</svg>
