<?xml version="1.0" standalone="no"?><!DOCTYPE svg PUBLIC "-//W3C//DTD SVG 1.1//EN" "http://www.w3.org/Graphics/SVG/1.1/DTD/svg11.dtd"><svg t="1547792078089" class="icon" style="" viewBox="0 0 1024 1024" version="1.1" xmlns="http://www.w3.org/2000/svg" p-id="14434" xmlns:xlink="http://www.w3.org/1999/xlink" width="16" height="16"><defs><style type="text/css"></style></defs><path d="M724.16 256H928a32 32 0 1 1 0 64H832v576a32 32 0 0 1-32 32h-576A32 32 0 0 1 192 896V416a32 32 0 0 1 64 0v448h512V320H96a32 32 0 0 1 0-64h203.84L368 114.176A32 32 0 0 1 396.8 96h230.4a32 32 0 0 1 28.8 18.176L724.224 256z m-71.04 0l-46.08-96h-190.08L370.88 256h282.24zM384 480a32 32 0 0 1 64 0v256a32 32 0 1 1-64 0v-256z m192 0a32 32 0 0 1 64 0v256a32 32 0 1 1-64 0v-256z" p-id="14435" fill="#9aabb8"></path></svg>