<?xml version="1.0" encoding="utf-8"?>
<!-- Generator: Adobe Illustrator 15.0.0, SVG Export Plug-In . SVG Version: 6.00 Build 0)  -->
<!DOCTYPE svg PUBLIC "-//W3C//DTD SVG 1.1//EN" "http://www.w3.org/Graphics/SVG/1.1/DTD/svg11.dtd">
<svg version="1.1" id="图层_1" xmlns="http://www.w3.org/2000/svg" xmlns:xlink="http://www.w3.org/1999/xlink" x="0px" y="0px"
	 width="24px" height="24px" viewBox="0 0 24 24" enable-background="new 0 0 24 24" xml:space="preserve">
<path fill="#3B4458" d="M9.853,21.405l4.662-4.661l0.122-0.122c0.033-0.033,0.061-0.065,0.089-0.101
	c1.784-2.009,1.714-5.086-0.211-7.011c-0.164-0.164-0.337-0.314-0.518-0.452l-1.175,1.517c0.104,0.082,0.169,0.126,0.336,0.293
	c1.239,1.24,1.246,3.243,0.023,4.493l-4.648,4.647l-0.002-0.003c-0.026,0.028-0.054,0.057-0.082,0.085
	c-1.247,1.247-3.272,1.247-4.519,0c-1.247-1.247-1.247-3.272,0-4.519c0.035-0.035,0.07-0.068,0.107-0.102l-0.002-0.002l2.25-2.25
	l-1.357-1.357L2.62,14.17l-0.016,0.017l-0.028,0.028c-1.997,1.997-1.997,5.236,0,7.232c1.997,1.997,5.236,1.997,7.233,0
	c0.009-0.009,0.019-0.019,0.028-0.03C9.841,21.415,9.849,21.41,9.853,21.405z"/>
<path fill="#3B4458" d="M11.269,13.554c-0.094-0.077-0.265-0.213-0.426-0.372c-1.247-1.247-1.247-3.272,0-4.519
	c0.035-0.035,0.07-0.068,0.108-0.101L10.948,8.56l4.645-4.646c1.252-1.205,3.241-1.19,4.475,0.042
	c1.239,1.24,1.247,3.244,0.023,4.493l-2.33,2.332l1.357,1.357l2.309-2.309l0.122-0.122c0.032-0.033,0.061-0.066,0.089-0.101
	c1.783-2.008,1.713-5.086-0.211-7.01c-1.925-1.924-4.999-1.994-7.011-0.211c-0.035,0.026-0.07,0.057-0.101,0.089L9.53,7.261
	L9.513,7.277L9.485,7.306c-1.997,1.997-1.997,5.235,0,7.232c0.157,0.157,0.323,0.303,0.494,0.437L11.269,13.554z"/>
<path fill="#3B4458" d="M4.632,12.635c0.041,0.527,0.502,0.922,1.03,0.881s0.922-0.502,0.881-1.03c0,0,0-0.001,0-0.001
	c-0.041-0.528-0.502-0.922-1.03-0.881S4.59,12.106,4.632,12.635C4.632,12.635,4.632,12.635,4.632,12.635z"/>
<path fill="#3B4458" d="M12.471,9.902c0.042,0.528,0.502,0.922,1.031,0.881c0.527-0.041,0.922-0.502,0.881-1.03c0,0,0,0,0-0.001
	c-0.041-0.528-0.502-0.922-1.03-0.881C12.824,8.912,12.43,9.373,12.471,9.902C12.471,9.901,12.471,9.902,12.471,9.902z"/>
<path fill="#3B4458" d="M9.647,14.32c0.042,0.527,0.502,0.922,1.03,0.881s0.922-0.502,0.881-1.03c0-0.001,0-0.001,0-0.001
	c-0.042-0.527-0.502-0.922-1.03-0.881s-0.922,0.502-0.881,1.029C9.647,14.319,9.647,14.32,9.647,14.32z"/>
<path fill="#3B4458" d="M17.484,11.536c0.041,0.528,0.502,0.922,1.03,0.881c0.528-0.042,0.923-0.502,0.882-1.03c0,0,0-0.001,0-0.001
	c-0.042-0.528-0.503-0.922-1.031-0.881C17.838,10.545,17.443,11.007,17.484,11.536C17.484,11.535,17.484,11.535,17.484,11.536z"/>
</svg>
