<?xml version="1.0" encoding="utf-8"?>
<!-- Generator: Adobe Illustrator 15.0.0, SVG Export Plug-In . SVG Version: 6.00 Build 0)  -->
<!DOCTYPE svg PUBLIC "-//W3C//DTD SVG 1.1//EN" "http://www.w3.org/Graphics/SVG/1.1/DTD/svg11.dtd">
<svg version="1.1" id="图层_1" xmlns="http://www.w3.org/2000/svg" xmlns:xlink="http://www.w3.org/1999/xlink" x="0px" y="0px"
	 width="24px" height="24px" viewBox="0 0 24 24" enable-background="new 0 0 24 24" xml:space="preserve">
<path fill="#9CADD3" d="M19.5,1.5h-15c-1.65,0-3,1.35-3,3v12c0,1.65,1.35,3,3,3h3l3.096,2.823c0.163,0.121,0.346,0.177,0.523,0.177
	c0.455,0,0.88-0.358,0.88-0.879V19.5h7.5c1.65,0,3-1.35,3-3v-12C22.5,2.85,21.15,1.5,19.5,1.5z M21,16.5c0,0.828-0.672,1.5-1.5,1.5
	H12c-0.397,0-0.78,0.158-1.061,0.439c-0.28,0.282-0.439,0.663-0.439,1.061v0.705l-1.989-1.813C8.233,18.14,7.874,18,7.5,18h-3
	C3.672,18,3,17.328,3,16.5v-12C3,3.672,3.672,3,4.5,3h15C20.328,3,21,3.672,21,4.5V16.5z M17.25,7.5H6.75C6.336,7.5,6,7.836,6,8.25
	S6.336,9,6.75,9h10.5C17.664,9,18,8.664,18,8.25S17.664,7.5,17.25,7.5z M17.25,12H6.75C6.336,12,6,12.336,6,12.75
	s0.336,0.75,0.75,0.75h10.5c0.414,0,0.75-0.336,0.75-0.75S17.664,12,17.25,12z"/>
</svg>
