<?xml version="1.0" encoding="utf-8"?>
<!-- Generator: Adobe Illustrator 15.0.0, SVG Export Plug-In . SVG Version: 6.00 Build 0)  -->
<!DOCTYPE svg PUBLIC "-//W3C//DTD SVG 1.1//EN" "http://www.w3.org/Graphics/SVG/1.1/DTD/svg11.dtd">
<svg version="1.1" id="图层_1" xmlns="http://www.w3.org/2000/svg" xmlns:xlink="http://www.w3.org/1999/xlink" x="0px" y="0px"
	 width="24px" height="24px" viewBox="0 0 24 24" enable-background="new 0 0 24 24" xml:space="preserve">
<path fill="#A0B1D6" d="M15.594,11.495c0.059-0.059,0.115-0.114,0.173-0.114h0.798c0.057,0,0.115-0.055,0.115-0.114v-0.915
	c0-0.056-0.059-0.114-0.115-0.114h-0.912c-0.059,0-0.171,0.059-0.171,0.114l-0.97,1.029c-0.059,0.056-0.115,0.056-0.115,0
	l-0.516-1.029c-0.055-0.056-0.112-0.114-0.17-0.114h-1.484c-0.057,0-0.114,0.059-0.114,0.114v0.914
	c0.003,0.062,0.053,0.111,0.114,0.114h0.914c0.057,0,0.113,0.056,0.17,0.114l0.344,0.741v0.172l-1.029,1.199
	c-0.057,0-0.113,0.059-0.17,0.059h-0.8c-0.057,0-0.114,0.059-0.114,0.113v0.914c0,0.055,0.057,0.113,0.114,0.113h0.914
	c0.057,0,0.172-0.059,0.172-0.113l1.313-1.485c0.057-0.059,0.114-0.059,0.114,0l0.74,1.485c0,0.055,0.115,0.113,0.172,0.113h0.913
	c0.057,0,0.115-0.059,0.115-0.113v-0.912c0-0.056-0.059-0.114-0.115-0.114H15.65c-0.059,0-0.113-0.059-0.17-0.114l-0.573-1.143
	v-0.173L15.594,11.495 M10.91,7.953c-0.361,0.294-0.62,0.694-0.741,1.143l-0.285,1.143H8.228c-0.057,0-0.114,0.058-0.114,0.114
	v0.914c0.003,0.062,0.053,0.111,0.114,0.114h1.37l-0.855,3.428c-0.173,0.686-0.629,0.57-0.629,0.57H7.541v1.144h0.571
	c0.456,0,0.914-0.059,1.143-0.342c0.285-0.284,0.458-0.8,0.57-1.371l0.856-3.428h1.314c0.059,0,0.115-0.055,0.115-0.114v-0.917
	c0-0.056-0.057-0.114-0.115-0.114h-1.029l0.285-1.084c0.057-0.172,0.344-0.458,0.515-0.571c0.628-0.458,1.485-0.172,2.056-0.059
	V7.554C13.252,7.44,11.996,7.041,10.91,7.953"/>
<path fill="#A0B1D6" d="M23.803,12.003c0.013-6.506-5.252-11.792-11.758-11.805c-0.016,0-0.032,0-0.048,0
	c-3.13-0.005-6.134,1.237-8.346,3.451c-2.217,2.214-3.46,5.22-3.453,8.354c-0.017,3.135,1.223,6.146,3.441,8.361
	c2.213,2.218,5.223,3.456,8.356,3.438C18.495,23.736,23.803,18.5,23.803,12.003z M1.584,12.003C1.581,6.252,6.24,1.587,11.991,1.584
	c0.002,0,0.004,0,0.006,0c5.788,0,10.483,4.69,10.483,10.419c0,5.72-4.695,10.416-10.483,10.416
	C6.272,22.445,1.61,17.824,1.584,12.099C1.584,12.067,1.584,12.035,1.584,12.003z"/>
</svg>
