<?xml version="1.0" encoding="utf-8"?>
<!-- Generator: Adobe Illustrator 15.0.0, SVG Export Plug-In . SVG Version: 6.00 Build 0)  -->
<!DOCTYPE svg PUBLIC "-//W3C//DTD SVG 1.1//EN" "http://www.w3.org/Graphics/SVG/1.1/DTD/svg11.dtd">
<svg version="1.1" id="图层_1" xmlns="http://www.w3.org/2000/svg" xmlns:xlink="http://www.w3.org/1999/xlink" x="0px" y="0px"
	 width="24px" height="24px" viewBox="0 0 24 24" enable-background="new 0 0 24 24" xml:space="preserve">
<path fill="#98A8B5" d="M20.887,9.961c-0.598,0.008-1.074,0.498-1.066,1.095l0,0v9.938H2.758V2.895h8.904
	c0.607,0,1.096-0.478,1.096-1.066c0-0.589-0.489-1.066-1.096-1.066H1.718L1.704,0.765c-0.006,0-0.007-0.004-0.013-0.004
	C1.441,0.764,1.2,0.859,1.015,1.028c-0.02,0.021-0.053,0.029-0.073,0.051c-0.02,0.023-0.031,0.05-0.051,0.072
	C0.724,1.337,0.63,1.578,0.625,1.827l0.003,0.014L0.625,1.857V22.03l0.003,0.016l-0.003,0.013c0,0.257,0.105,0.48,0.259,0.665
	c0.024,0.029,0.036,0.062,0.061,0.088c0.017,0.017,0.041,0.024,0.062,0.041c0.185,0.161,0.42,0.272,0.685,0.272l0.014-0.003
	l0.014,0.003h19.137l0.018-0.003l0.013,0.003c0.251-0.004,0.492-0.099,0.678-0.268c0.023-0.02,0.053-0.029,0.073-0.049
	c0.022-0.023,0.029-0.049,0.049-0.076c0.169-0.185,0.264-0.425,0.267-0.675l-0.003-0.015l0.003-0.014V11.055
	c0.008-0.595-0.467-1.084-1.063-1.093C20.89,9.961,20.888,9.961,20.887,9.961z"/>
<path fill="#98A8B5" d="M8.82,15.513l3.802-1.93l-1.885-2.011L8.82,15.513z M21.323,4.615l-1.906-2.026l-8.184,8.469l1.906,2.029
	L21.323,4.615z M23.059,1.143l-0.385-0.437c-0.391-0.419-1.047-0.442-1.467-0.051c-0.018,0.017-0.035,0.034-0.052,0.051l-1.268,1.33
	l1.905,2.03l1.268-1.33C23.479,2.288,23.479,1.591,23.059,1.143z"/>
</svg>
