<?xml version="1.0" standalone="no"?><!DOCTYPE svg PUBLIC "-//W3C//DTD SVG 1.1//EN" "http://www.w3.org/Graphics/SVG/1.1/DTD/svg11.dtd"><svg t="1547792115439" class="icon" style="" viewBox="0 0 1024 1024" version="1.1" xmlns="http://www.w3.org/2000/svg" p-id="15385" xmlns:xlink="http://www.w3.org/1999/xlink" width="16" height="16"><defs><style type="text/css"></style></defs><path d="M896 544v287.808C896 867.264 866.816 896 831.872 896h-639.68A64.448 64.448 0 0 1 128 831.808v-639.68C128 156.736 157.184 128 192.192 128H544a32 32 0 0 0 0-64H192.384A128.32 128.32 0 0 0 64 192.384v639.232C64 902.592 121.472 960 192.384 960h639.232A128.32 128.32 0 0 0 960 831.616V544a32 32 0 1 0-64 0z m-443.904 74.56L938.56 132.096a32 32 0 0 0 0.192-45.44 32.512 32.512 0 0 0-45.504 0.192l-486.4 486.4a32.128 32.128 0 0 0-0.192 45.504c12.096 12.16 32.832 12.416 45.44-0.192z" p-id="15386" fill="#9aabb8"></path></svg>