<?xml version="1.0" standalone="no"?><!DOCTYPE svg PUBLIC "-//W3C//DTD SVG 1.1//EN" "http://www.w3.org/Graphics/SVG/1.1/DTD/svg11.dtd"><svg t="1550729033857" class="icon" style="" viewBox="0 0 1024 1024" version="1.1" xmlns="http://www.w3.org/2000/svg" p-id="8193" xmlns:xlink="http://www.w3.org/1999/xlink" width="15" height="15"><defs><style type="text/css"></style></defs><path d="M861.090909 900.072727L557.242182 666.577455l-2.816-1.931637a58.088727 58.088727 0 0 0-30.789818-8.750545c-10.728727 0-21.434182 2.909091-30.789819 8.750545L186.181818 900.072727V174.545455C186.181818 142.429091 212.293818 116.363636 244.363636 116.363636h558.545455C834.978909 116.363636 861.090909 142.429091 861.090909 174.545455v725.527272zM802.909091 46.545455h-558.545455A128.139636 128.139636 0 0 0 116.363636 174.545455v749.288727a58.181818 58.181818 0 0 0 88.994909 49.338182l318.277819-244.363637 315.485091 242.455273 2.792727 1.931636A58.228364 58.228364 0 0 0 930.909091 923.834182V174.545455C930.909091 103.982545 873.495273 46.545455 802.909091 46.545455z" fill="#409EFF" p-id="8194"></path></svg>