<?xml version="1.0" standalone="no"?><!DOCTYPE svg PUBLIC "-//W3C//DTD SVG 1.1//EN" "http://www.w3.org/Graphics/SVG/1.1/DTD/svg11.dtd"><svg t="1544086703284" class="icon" style="" viewBox="0 0 1024 1024" version="1.1" xmlns="http://www.w3.org/2000/svg" p-id="7946" xmlns:xlink="http://www.w3.org/1999/xlink" width="22" height="22"><defs><style type="text/css"></style></defs><path d="M1024.244053 733.013333c0 46.933333-20.906667 55.701333-97.92 56.064-20.693333-182.037333-118.4-271.765333-222.933333-314.496a244.565333 244.565333 0 0 0 6.186667-299.029333 149.226667 149.226667 0 0 1 97.92 280.874667A281.344 281.344 0 0 1 1024.244053 733.013333zM603.124053 489.28C727.924053 513.557333 874.91072 596.181333 874.91072 832c0 64-85.12 64-362.666667 64-278.613333 0-362.666667 0.661333-362.666666-64 0-235.242667 146.56-318.293333 271.786666-342.72a192 192 0 1 1 181.76 0zM320.457387 473.6C216.564053 517.354667 119.07072 609.322667 98.377387 789.333333 20.937387 789.162667 0.244053 780.650667 0.244053 733.12a271.722667 271.722667 0 0 1 215.466667-277.333333A149.141333 149.141333 0 0 1 314.91072 175.573333a244.288 244.288 0 0 0 5.546667 298.026667z" p-id="7947" fill="#ffffff"></path></svg>