<?xml version="1.0" encoding="utf-8"?>
<!-- Generator: Adobe Illustrator 15.0.0, SVG Export Plug-In . SVG Version: 6.00 Build 0)  -->
<!DOCTYPE svg PUBLIC "-//W3C//DTD SVG 1.1//EN" "http://www.w3.org/Graphics/SVG/1.1/DTD/svg11.dtd">
<svg version="1.1" id="图层_1" xmlns="http://www.w3.org/2000/svg" xmlns:xlink="http://www.w3.org/1999/xlink" x="0px" y="0px"
	 width="18px" height="18px" viewBox="0 0 18 18" enable-background="new 0 0 18 18" xml:space="preserve">
<path fill="#7B8993" d="M15.038,2.25h-4.904c-0.19,0-0.369,0.074-0.503,0.208L2.458,9.631c-0.278,0.277-0.278,0.729,0,1.006
	l4.904,4.904c0.133,0.133,0.313,0.207,0.502,0.207c0.19,0,0.369-0.074,0.503-0.207l7.174-7.174c0.133-0.134,0.209-0.313,0.209-0.503
	V2.96C15.75,2.57,15.43,2.25,15.038,2.25z M14.86,7.792l-6.994,6.995l-4.653-4.653l6.994-6.994h4.653V7.792z"/>
<path fill="#7B8993" d="M10.731,7.267c0.347,0.347,0.806,0.536,1.294,0.536s0.949-0.189,1.293-0.536
	c0.347-0.346,0.537-0.805,0.537-1.293s-0.19-0.949-0.537-1.294c-0.346-0.346-0.805-0.536-1.293-0.536s-0.949,0.19-1.294,0.536
	c-0.345,0.345-0.536,0.805-0.536,1.294S10.387,6.922,10.731,7.267z M11.361,5.309c0.177-0.178,0.414-0.276,0.664-0.276
	c0.251,0,0.486,0.098,0.666,0.276c0.178,0.178,0.275,0.415,0.275,0.666c0,0.251-0.098,0.487-0.275,0.667
	c-0.178,0.177-0.413,0.276-0.664,0.276c-0.252,0-0.487-0.099-0.665-0.276c-0.177-0.178-0.276-0.415-0.276-0.665
	C11.086,5.722,11.184,5.486,11.361,5.309z"/>
</svg>
