<?xml version="1.0" standalone="no"?><!DOCTYPE svg PUBLIC "-//W3C//DTD SVG 1.1//EN" "http://www.w3.org/Graphics/SVG/1.1/DTD/svg11.dtd"><svg t="1544087201082" class="icon" style="" viewBox="0 0 1024 1024" version="1.1" xmlns="http://www.w3.org/2000/svg" p-id="18955" xmlns:xlink="http://www.w3.org/1999/xlink" width="22" height="22"><defs><style type="text/css"></style></defs><path d="M963.8 212.3c-2.1 7.6-6.5 14.7-13 20.1L531.7 584.3c-0.2 0.2-0.4 0.4-0.7 0.5-16.4 13.2-40.3 11.6-54.8-3.3L126.6 288.9c-17.2-14.4-19.5-40.3-5.1-57.6 14.4-17.2 40.3-19.5 57.6-5.1l326.4 273.3 392.7-329.6c5.1-4.3 10.9-7.1 17-8.5-6.5-1.9-13.3-3-20.4-3H113.2c-39.1 0-71.1 32-71.1 71.1V822c0 39.1 32 71.1 71.1 71.1h781.6c39.1 0 71.1-32 71.1-71.1V229.5c0-5.9-0.7-11.7-2.1-17.2z" fill="#ffffff" p-id="18956"></path></svg>