<?xml version="1.0" encoding="utf-8"?>
<!-- Generator: Adobe Illustrator 15.0.0, SVG Export Plug-In . SVG Version: 6.00 Build 0)  -->
<!DOCTYPE svg PUBLIC "-//W3C//DTD SVG 1.1//EN" "http://www.w3.org/Graphics/SVG/1.1/DTD/svg11.dtd">
<svg version="1.1" id="图层_1" xmlns="http://www.w3.org/2000/svg" xmlns:xlink="http://www.w3.org/1999/xlink" x="0px" y="0px"
	 width="16px" height="16px" viewBox="0 0 16 16" enable-background="new 0 0 16 16" xml:space="preserve">
<path fill="#524F48" d="M2.001,7.784C2,4.573,4.688,1.967,8,1.968c3.313-0.001,6,2.604,6,5.816c0,3.21-2.688,5.815-6,5.815
	C4.688,13.602,2,10.995,2.001,7.784 M8,14.57c3.861,0,7-3.043,7-6.786c0-3.745-3.139-6.787-7-6.786c-3.862,0-7,3.042-7,6.787
	C1,11.527,4.138,14.57,8,14.57z M8,10.195l4.249-4.12l-0.712-0.69L8,8.814L4.462,5.373L3.75,6.063L8,10.195z"/>
</svg>
