<?xml version="1.0" standalone="no"?><!DOCTYPE svg PUBLIC "-//W3C//DTD SVG 1.1//EN" "http://www.w3.org/Graphics/SVG/1.1/DTD/svg11.dtd"><svg t="1544087331269" class="icon" style="" viewBox="0 0 1024 1024" version="1.1" xmlns="http://www.w3.org/2000/svg" p-id="21699" xmlns:xlink="http://www.w3.org/1999/xlink" width="22" height="22"><defs><style type="text/css"></style></defs><path d="M147.142065 1023.212308c-40.327563 0-73.015652-30.512232-73.015653-68.161641V443.966216c0-37.615162 32.689231-68.129677 73.015653-68.129676h730.122274c40.316147 0 73.009944 30.514515 73.009944 68.129676v511.084451c0 37.649409-32.694939 68.167349-73.011086 68.162782H147.140923z m365.058854-476.999064c-60.50276 0-109.521195 45.738667-109.521195 102.205931 0 37.72247 22.180959 70.343206 54.761739 88.025186V833.698105c0 29.369507 24.523487 53.22631 54.76288 53.22631 30.224553 0 54.758314-23.859086 54.758315-53.22631v-97.254885c32.583064-17.683122 54.757173-50.302716 54.757173-88.026328 0-56.460415-49.019576-102.199081-109.515488-102.199082l-0.003424-0.006849z m0-442.960481c-120.965565 0-219.037824 91.520713-219.037824 204.420994H183.646466C183.646466 138.334751 330.739443 1.044548 512.199777 1.044548c181.454627 0 328.552169 137.290203 328.552169 306.629209h-109.516628c0.001142-112.900281-98.076825-204.420994-219.034399-204.420994z" fill="#ffffff" p-id="21700"></path></svg>