<?xml version="1.0" standalone="no"?><!DOCTYPE svg PUBLIC "-//W3C//DTD SVG 1.1//EN" "http://www.w3.org/Graphics/SVG/1.1/DTD/svg11.dtd"><svg t="1547791909480" class="icon" style="" viewBox="0 0 1024 1024" version="1.1" xmlns="http://www.w3.org/2000/svg" p-id="12641" xmlns:xlink="http://www.w3.org/1999/xlink" width="18" height="18"><defs><style type="text/css"></style></defs><path d="M512 192C288.704 192 95.104 322.048 0 512c95.104 189.952 288.704 320 512 320s416.896-130.048 512-320C928.896 322.048 735.296 192 512 192zM416 313.984c53.056 0 96 43.008 96 96 0 53.056-42.944 96-96 96S320 463.04 320 409.984C320 356.992 362.944 313.984 416 313.984zM764.416 662.336C688.896 710.528 601.536 736 512 736s-176.896-25.472-252.416-73.664C199.424 623.936 148.416 572.48 110.144 512c38.272-60.48 89.28-111.936 149.44-150.336 3.904-2.496 7.872-4.928 11.84-7.296C261.44 381.696 256 411.2 256 441.984c0 141.376 114.624 256 256 256s256-114.624 256-256c0-30.784-5.44-60.224-15.424-87.552 3.968 2.368 7.936 4.736 11.84 7.232 60.16 38.4 111.168 89.792 149.44 150.336C875.584 572.48 824.576 623.936 764.416 662.336z" p-id="12642" fill="#9aabb8"></path></svg>