<?xml version="1.0" standalone="no"?><!DOCTYPE svg PUBLIC "-//W3C//DTD SVG 1.1//EN" "http://www.w3.org/Graphics/SVG/1.1/DTD/svg11.dtd"><svg t="1544086233186" class="icon" style="" viewBox="0 0 1024 1024" version="1.1" xmlns="http://www.w3.org/2000/svg" p-id="2223" xmlns:xlink="http://www.w3.org/1999/xlink" width="22" height="22"><defs><style type="text/css"></style></defs><path d="M218.56 509.568c0-104.768 55.808-201.6 146.432-253.952a292.416 292.416 0 0 1 292.8 0 293.312 293.312 0 0 1 146.368 253.952c0 104.704-55.808 201.536-146.368 253.952a292.416 292.416 0 0 1-292.8 0 293.312 293.312 0 0 1-146.432-253.952z m347.712 440.704a36.864 36.864 0 0 1 0 73.728H456.512a36.8 36.8 0 1 1 0-73.728h109.76zM511.36 182.976a36.8 36.8 0 0 1-36.8-36.864V36.16a36.864 36.864 0 0 1 73.6 0v109.952a36.864 36.864 0 0 1-36.8 36.864zM227.328 279.488L149.632 201.728a36.928 36.928 0 0 1 52.032-52.16l77.696 77.824a36.928 36.928 0 0 1-52.032 52.096zM146.624 475.136a36.864 36.864 0 0 1 0 73.728H36.864a36.8 36.8 0 0 1 0-73.728h109.824z m839.808-0.64a36.8 36.8 0 1 1 0 73.728h-109.76a36.8 36.8 0 1 1 0-73.728h109.76z m-190.848-195.52a36.8 36.8 0 0 1-52.096-52.16L821.184 149.12a36.8 36.8 0 1 1 52.096 52.16l-77.632 77.696z m-164.736 560.576a36.8 36.8 0 1 1 0 73.728H391.808a36.8 36.8 0 1 1 0-73.728h239.104z" p-id="2224" fill="#748493"></path></svg>