<?xml version="1.0" standalone="no"?><!DOCTYPE svg PUBLIC "-//W3C//DTD SVG 1.1//EN" "http://www.w3.org/Graphics/SVG/1.1/DTD/svg11.dtd"><svg t="1544086548380" class="icon" style="" viewBox="0 0 1024 1024" version="1.1" xmlns="http://www.w3.org/2000/svg" p-id="6445" xmlns:xlink="http://www.w3.org/1999/xlink" width="22" height="22"><defs><style type="text/css"></style></defs><path d="M884.8 1014.4H144c-36.8 0-67.2-30.4-67.2-67.2V209.6c0-36.8 30.4-67.2 67.2-67.2h33.6v100.8c0 36.8 30.4 67.2 67.2 67.2h538.4c36.8 0 67.2-30.4 67.2-67.2V142.4H884c36.8 0 67.2 30.4 67.2 67.2v737.6c0.8 36.8-29.6 67.2-66.4 67.2z m-150.4-456c-20-19.2-52-19.2-72 0l-180 171.2-84-80c-20-19.2-52-19.2-72 0s-20 49.6 0 68l120 113.6c20 19.2 52 19.2 72 0l216-204.8c20-18.4 20-48.8 0-68z m-52-315.2h-336c-36.8 0-67.2-30.4-67.2-67.2v-33.6C413.6 44 415.2 42.4 450.4 8.8H584C616.8 40 616 44 749.6 142.4V176c0 37.6-29.6 67.2-67.2 67.2zM514.4 76c-36.8 0-67.2 30.4-67.2 67.2 0 36.8 30.4 67.2 67.2 67.2 36.8 0 67.2-30.4 67.2-67.2 0-37.6-30.4-67.2-67.2-67.2z m0 0" fill="#ffffff" p-id="6446"></path></svg>