<?xml version="1.0" standalone="no"?><!DOCTYPE svg PUBLIC "-//W3C//DTD SVG 1.1//EN" "http://www.w3.org/Graphics/SVG/1.1/DTD/svg11.dtd"><svg t="1548318114590" class="icon" style="" viewBox="0 0 1024 1024" version="1.1" xmlns="http://www.w3.org/2000/svg" p-id="38748" xmlns:xlink="http://www.w3.org/1999/xlink" width="14" height="14"><defs><style type="text/css"></style></defs><path d="M821.76 479.488c0 0-6.272-206.4-174.4-247.424S398.208 368.192 396.544 373.248C394.88 378.304 386.624 376 386.624 376c-13.44-12.736-72.704-41.984-134.976-4.48-62.208 37.504-39.68 108.736-39.68 108.736S119.744 472.768 72.448 615.168c-47.232 142.528 118.464 182.912 118.464 182.912l278.144 0 0-151.616-55.68 0L408.512 646.464 404.736 646.464l0-0.256c-3.2 0-5.76-2.56-5.76-5.824 0-1.92 1.024-3.584 2.56-4.672l113.984-119.872c1.6-1.792 3.84-3.008 6.464-3.008 2.688 0 5.056 1.344 6.656 3.328l113.152 118.912c0.192 0.128 0.384 0.32 0.576 0.512l1.088 1.152-0.384 0c0.576 1.024 0.96 1.92 0.96 3.136 0 3.584-2.88 6.528-6.528 6.528-0.128 0-0.128-0.128-0.256-0.128l0 0.256L575.936 646.528l0 151.616 252.48 0c0 0 120.384-30.144 131.008-154.432C970.176 519.424 821.76 479.488 821.76 479.488z" p-id="38749" fill="#ffffff"></path></svg>