<?xml version="1.0" encoding="utf-8"?>
<!-- Generator: Adobe Illustrator 15.0.0, SVG Export Plug-In . SVG Version: 6.00 Build 0)  -->
<!DOCTYPE svg PUBLIC "-//W3C//DTD SVG 1.1//EN" "http://www.w3.org/Graphics/SVG/1.1/DTD/svg11.dtd">
<svg version="1.1" id="图层_1" xmlns="http://www.w3.org/2000/svg" xmlns:xlink="http://www.w3.org/1999/xlink" x="0px" y="0px"
	 width="16px" height="16px" viewBox="0 0 16 16" enable-background="new 0 0 16 16" xml:space="preserve">
<path fill="#409EFF" d="M15.001,2H12.5c0-1.104-0.396-2-1.5-2H5C3.896,0,3.5,0.896,3.5,2H0.999C0.724,2,0.5,2.222,0.5,2.5
	C0.5,2.776,0.722,3,1,3c0.276,0,0.5,0.224,0.5,0.5V15c0,0.553,0.449,1,1.003,1h10.994c0.554,0,1.003-0.445,1.003-1V3.5
	C14.5,3.224,14.723,3,15,3c0.275,0,0.5-0.222,0.5-0.5C15.5,2.224,15.276,2,15.001,2z M5,1h6c0.553,0,0.5,0.447,0.5,1h-7
	C4.5,1.447,4.448,1,5,1z M13.5,14.496c0,0.278-0.229,0.504-0.498,0.504H2.998C2.723,15,2.5,14.775,2.5,14.496V3.501
	C2.5,3.22,2.725,3,3.001,3h9.998C13.28,3,13.5,3.225,13.5,3.501V14.496z"/>
<path fill="#409EFF" d="M5,5C4.724,5,4.5,5.228,4.5,5.498v7.004C4.5,12.777,4.722,13,5,13c0.276,0,0.5-0.229,0.5-0.498V5.498
	C5.5,5.223,5.278,5,5,5z"/>
<path fill="#409EFF" d="M8,5C7.724,5,7.5,5.228,7.5,5.498v7.004C7.5,12.777,7.722,13,8,13c0.276,0,0.5-0.229,0.5-0.498V5.498
	C8.5,5.223,8.278,5,8,5z"/>
<path fill="#409EFF" d="M11,5c-0.275,0-0.5,0.228-0.5,0.498v7.004C10.5,12.777,10.723,13,11,13c0.275,0,0.5-0.229,0.5-0.498V5.498
	C11.5,5.223,11.277,5,11,5z"/>
</svg>
