<?xml version="1.0" encoding="utf-8"?>
<!-- Generator: Adobe Illustrator 15.0.0, SVG Export Plug-In . SVG Version: 6.00 Build 0)  -->
<!DOCTYPE svg PUBLIC "-//W3C//DTD SVG 1.1//EN" "http://www.w3.org/Graphics/SVG/1.1/DTD/svg11.dtd">
<svg version="1.1" id="图层_1" xmlns="http://www.w3.org/2000/svg" xmlns:xlink="http://www.w3.org/1999/xlink" x="0px" y="0px"
	 width="16px" height="16px" viewBox="0 0 16 16" enable-background="new 0 0 16 16" xml:space="preserve">
<path fill="#409EFF" d="M4.7,11.3c0,0.2,0,0.3,0.1,0.4c0.1,0.1,0.2,0.1,0.3,0.1h0.1l2.7-0.7l7-7c0.3-0.3,0.5-0.8,0-1.3l-1-1
	c-0.5-0.5-1-0.5-1.5,0.1l-7,6.8L4.7,11.3z M12.9,2.5c0.1-0.1,0.3-0.1,0.399,0L14,3.2c0.1,0.1,0.1,0.3,0,0.4l-0.7,0.7l-1.1-1.1
	L12.9,2.5z M11.5,3.9L12.6,5L7.7,9.9L6.6,8.8L11.5,3.9z M6,9.5l1,1l-1.3,0.3L6,9.5z M14.5,6.3c-0.4,0-0.6,0.2-0.6,0.4V13.1
	C13.9,13.4,13.6,13.7,13.3,13.7H2.6C2.3,13.7,2,13.4,2,13.1V2.8c0-0.3,0.3-0.6,0.6-0.6h7C9.8,2.2,10,2,10,1.7c0-0.3-0.2-0.5-0.5-0.5
	h-7C1.7,1.2,1,1.9,1,2.7v10.6c0,0.8,0.7,1.5,1.5,1.5h11c0.8,0,1.5-0.7,1.5-1.5V6.8C15,6.5,14.8,6.3,14.5,6.3z"/>
</svg>
