<?xml version="1.0" encoding="utf-8"?>
<!-- Generator: Adobe Illustrator 15.0.0, SVG Export Plug-In . SVG Version: 6.00 Build 0)  -->
<!DOCTYPE svg PUBLIC "-//W3C//DTD SVG 1.1//EN" "http://www.w3.org/Graphics/SVG/1.1/DTD/svg11.dtd">
<svg version="1.1" id="图层_1" xmlns="http://www.w3.org/2000/svg" xmlns:xlink="http://www.w3.org/1999/xlink" x="0px" y="0px"
	 width="16px" height="16px" viewBox="0 0 16 16" enable-background="new 0 0 16 16" xml:space="preserve">
<path fill="#409EFF" d="M11.842,3.522l-0.008-1.186c0,0,0.104-0.841-0.959-0.841H2.706c0,0-0.715-0.03-0.715,0.687v10.28
	c0,0,0.077,0.834,0.897,0.834h2.088c0,0,0.423,0.076,0.423,0.522c0,0.445-0.396,0.459-0.396,0.459l-2.615-0.004
	c0,0-1.385-0.25-1.392-1.561C0.99,11.402,0.99,2.286,0.99,2.286S0.821,0.51,2.757,0.51c1.935,0,8.485,0.014,8.485,0.014
	s1.525,0.011,1.551,1.417c0.027,1.406,0.023,1.611,0.023,1.611S12.76,4.011,12.34,4.011C11.928,4.011,11.844,3.583,11.842,3.522z"/>
<path fill="#409EFF" d="M9.878,7.805v1.988c0,0-0.021,0.23,0.19,0.448c0.209,0.221,1.938,1.971,1.938,1.971s0.33,0.164,0.607-0.112
	c0.277-0.277-0.039-0.65-0.039-0.65l-1.607-1.697c0,0-0.117-0.076-0.117-0.391c0-0.315-0.004-1.558-0.004-1.558
	s-0.133-0.409-0.466-0.409C10.049,7.393,9.883,7.673,9.878,7.805z"/>
<path fill="#409EFF" d="M10.838,5.465c-2.701,0-4.891,2.189-4.891,4.891c0,2.701,2.19,4.891,4.891,4.891
	c2.7,0,4.891-2.189,4.891-4.891C15.729,7.654,13.538,5.465,10.838,5.465z M10.838,14.298c-2.178,0-3.942-1.765-3.942-3.942
	c0-2.179,1.764-3.941,3.942-3.941s3.941,1.764,3.941,3.941C14.779,12.533,13.016,14.298,10.838,14.298z M5.104,7.393H3.781
	c-0.212,0-0.388-0.173-0.388-0.388V6.797c0-0.213,0.173-0.389,0.388-0.389h1.323c0.213,0,0.389,0.173,0.389,0.389v0.208
	C5.492,7.22,5.316,7.393,5.104,7.393z M10.027,4.443H3.783c-0.212,0-0.388-0.173-0.388-0.388V3.846c0-0.212,0.173-0.388,0.388-0.388
	h6.244c0.214,0,0.39,0.173,0.39,0.388v0.208C10.417,4.27,10.241,4.443,10.027,4.443z"/>
</svg>
