<?xml version="1.0" encoding="utf-8"?>
<!-- Generator: Adobe Illustrator 15.0.0, SVG Export Plug-In . SVG Version: 6.00 Build 0)  -->
<!DOCTYPE svg PUBLIC "-//W3C//DTD SVG 1.1//EN" "http://www.w3.org/Graphics/SVG/1.1/DTD/svg11.dtd">
<svg version="1.1" id="图层_1" xmlns="http://www.w3.org/2000/svg" xmlns:xlink="http://www.w3.org/1999/xlink" x="0px" y="0px"
	 width="16px" height="16px" viewBox="0 0 16 16" enable-background="new 0 0 16 16" xml:space="preserve">
<path fill="#409EFF" d="M7.97,4.153c2.633,0,4.899,1.544,5.959,3.773h1.033C13.843,5.162,11.137,3.21,7.97,3.21
	c-3.166,0-5.873,1.952-6.993,4.716h1.034C3.072,5.698,5.338,4.153,7.97,4.153z M7.97,11.699c-2.632,0-4.898-1.544-5.959-3.773H0.978
	c1.12,2.765,3.827,4.716,6.993,4.716c3.167,0,5.873-1.951,6.993-4.716H13.93C12.869,10.155,10.604,11.699,7.97,11.699z M5.455,7.927
	c0,1.39,1.126,2.515,2.515,2.515s2.515-1.125,2.515-2.515c0-1.389-1.126-2.515-2.515-2.515S5.455,6.538,5.455,7.927z M9.543,7.927
	c0,0.868-0.705,1.572-1.573,1.572c-0.868,0-1.572-0.704-1.572-1.572S7.102,6.354,7.97,6.354C8.838,6.354,9.543,7.059,9.543,7.927z"
	/>
</svg>
