<?xml version="1.0" encoding="utf-8"?>
<!-- Generator: Adobe Illustrator 15.0.0, SVG Export Plug-In . SVG Version: 6.00 Build 0)  -->
<!DOCTYPE svg PUBLIC "-//W3C//DTD SVG 1.1//EN" "http://www.w3.org/Graphics/SVG/1.1/DTD/svg11.dtd">
<svg version="1.1" id="图层_1" xmlns="http://www.w3.org/2000/svg" xmlns:xlink="http://www.w3.org/1999/xlink" x="0px" y="0px"
	 width="22px" height="22px" viewBox="0 0 22 22" enable-background="new 0 0 22 22" xml:space="preserve">
<path fill="#515151" d="M17.25,5.156c-0.382,0-0.714,0.309-0.714,0.691v12.684c-0.003,0.379-0.313,0.685-0.69,0.682
	c-0.003,0-0.004,0-0.006,0H6.166c-0.381,0-0.701-0.305-0.701-0.682V5.818c0-0.382-0.28-0.691-0.662-0.691
	c-0.382,0-0.662,0.309-0.662,0.691v12.713c0,1.141,0.879,2.137,2.021,2.137h9.668c1.141,0,2.132-0.996,2.132-2.137V5.847
	C17.966,5.47,17.633,5.156,17.25,5.156z M9.564,15.771v-7.6c0-0.382-0.28-0.691-0.662-0.691C8.52,7.481,8.24,7.79,8.24,8.172v7.594
	c0,0.383,0.28,0.69,0.662,0.69C9.284,16.456,9.564,16.152,9.564,15.771z M13.755,15.771v-7.6c0-0.382-0.339-0.691-0.714-0.691
	c-0.376,0-0.715,0.309-0.715,0.691v7.594c0,0.383,0.339,0.69,0.715,0.69C13.416,16.457,13.755,16.152,13.755,15.771z M19.88,4.75
	h-3.346V3.343c0-1.141-0.935-2.005-2.063-2.005L7.543,1.333c-1.141,0-2.079,0.865-2.079,2.005V4.75H2.12
	c-0.382,0-0.691,0.28-0.691,0.662c0,0.382,0.309,0.662,0.691,0.662h17.76c0.382,0,0.69-0.28,0.69-0.662
	C20.57,5.03,20.262,4.75,19.88,4.75L19.88,4.75z M15.094,4.75H6.809V3.343c0-0.382,0.357-0.687,0.74-0.687h6.922
	c0.377,0,0.627,0.299,0.627,0.687L15.094,4.75z"/>
</svg>
