<?xml version="1.0" standalone="no"?><!DOCTYPE svg PUBLIC "-//W3C//DTD SVG 1.1//EN" "http://www.w3.org/Graphics/SVG/1.1/DTD/svg11.dtd"><svg t="1552541432716" class="icon" style="" viewBox="0 0 1024 1024" version="1.1" xmlns="http://www.w3.org/2000/svg" p-id="5496" xmlns:xlink="http://www.w3.org/1999/xlink" width="22" height="22"><defs><style type="text/css"></style></defs><path d="M725.333333 938.666667H270.08A139.946667 139.946667 0 0 1 128 800.853333V250.453333a139.946667 139.946667 0 0 1 142.08-137.813333h401.493333a27.733333 27.733333 0 1 1 0 55.04H270.08a85.333333 85.333333 0 0 0-85.333333 82.773333v550.4a85.333333 85.333333 0 0 0 85.333333 82.773334H725.333333a85.333333 85.333333 0 0 0 85.333334-82.773334V291.84a28.16 28.16 0 0 1 28.586666-27.733333 27.733333 27.733333 0 0 1 28.16 27.733333v509.013333A139.946667 139.946667 0 0 1 725.333333 938.666667zM526.08 415.573333h-170.666667a27.733333 27.733333 0 1 1 0-55.04h170.666667a27.733333 27.733333 0 1 1 0 55.04zM640 580.693333H355.413333a27.733333 27.733333 0 1 1 0-55.04H640a27.733333 27.733333 0 1 1 0 55.04z m0 165.12H355.413333a27.733333 27.733333 0 1 1 0-55.04H640a27.733333 27.733333 0 1 1 0 55.04z m-7.253333-378.88a27.306667 27.306667 0 0 1-27.733334-25.6 26.026667 26.026667 0 0 1 8.106667-18.773333l234.24-226.986667a29.013333 29.013333 0 0 1 40.106667 0 26.453333 26.453333 0 0 1 0 39.253334l-234.666667 225.706666a28.586667 28.586667 0 0 1-20.053333 6.4z" p-id="5497" fill="#515151"></path></svg>