<?xml version="1.0" standalone="no"?><!DOCTYPE svg PUBLIC "-//W3C//DTD SVG 1.1//EN" "http://www.w3.org/Graphics/SVG/1.1/DTD/svg11.dtd"><svg t="1552541918193" class="icon" style="" viewBox="0 0 1024 1024" version="1.1" xmlns="http://www.w3.org/2000/svg" p-id="6925" xmlns:xlink="http://www.w3.org/1999/xlink" width="22" height="22"><defs><style type="text/css"></style></defs><path d="M605.7 340.8h4.9c16.2 0 29.5-13.3 29.6-29.6v-69.3c0-16.3-13.3-29.6-29.6-29.6h-4.9c-16.3 0-29.6 13.3-29.6 29.6v69.3c0 16.3 13.3 29.6 29.6 29.6z" fill="#515151" p-id="6926"></path><path d="M863.5 671.9a32.2 32.1 0 1 0 64.4 0 32.2 32.1 0 1 0-64.4 0Z" fill="#515151" p-id="6927"></path><path d="M928 544V191.9c0-70.4-57.6-128-128-128H226c-70.4 0-128 57.6-128 128v639.7c0 70.4 57.6 128 128 128h574c70.4 0 128-57.6 128-128v-31.8h-0.1c0-17.7-14.4-32.1-32.2-32.1s-32.2 14.4-32.2 32.1v30.8c0 35.2-28.8 64-64 64H222.2c-35.2 0-64-28.8-64-64V192.8c0-35.2 28.8-64 64-64H255V385.2c0 35.2 28.8 64 64 64h383.1c35.2 0 64-28.8 64-64V128.9v-0.1h33.3c35.2 0 64 28.8 64 64l0.1 351.2c0 17.7 14.4 32.1 32.2 32.1s32.2-14.4 32.3-32.1zM703.1 368.8c0 8.8-7.2 16-16 16h-352c-8.8 0-16-7.2-16-16v-240h384v240z" fill="#515151" p-id="6928"></path></svg>